<svg xmlns="http://www.w3.org/2000/svg" width="50" height="14" viewBox="172.051 381.306 290.364 66.533"><path fill="#fefefe" d="M352.49 395.349h-6.702s-6.485-.549-5.757-7.619c0 0 1.087-5.383 6.932-4.932 0 0 3.125.131 4.813 3.307 0 0 .625.949.67 1.902.044.949.044 7.342.044 7.342zm-20.519-12.69v64.919h-9.188v-64.919h9.188zm20.734 18.621v46.299h-9.073V401.28h9.073zm12.981 14.116a23.59 23.59 0 0 1 4.963-7.342c2.104-2.104 4.568-3.762 7.396-4.961 2.823-1.211 5.819-1.813 8.996-1.813 3.229 0 6.256.604 9.047 1.813a23.98 23.98 0 0 1 7.398 4.961 22.93 22.93 0 0 1 5.003 7.342c1.224 2.793 1.81 5.809 1.81 9.039v23.275h-9.183v-23.281c0-1.92-.362-3.74-1.089-5.426a14.245 14.245 0 0 0-2.995-4.453c-1.274-1.277-2.776-2.275-4.513-2.996a13.957 13.957 0 0 0-5.479-1.097c-1.933 0-3.741.369-5.437 1.097a13.832 13.832 0 0 0-4.453 2.996 13.904 13.904 0 0 0-3.004 4.453 13.699 13.699 0 0 0-1.09 5.426v23.281h-9.178v-23.275c.004-3.232.597-6.247 1.808-9.039zm90.225 15.912l6.504 6.508-3.209 3.199a22.784 22.784 0 0 1-7.531 5.053 22.773 22.773 0 0 1-8.891 1.771c-3.096 0-6.061-.586-8.889-1.771-2.813-1.162-5.332-2.85-7.533-5.053-2.271-2.273-3.963-4.832-5.062-7.695-1.098-2.854-1.658-5.766-1.658-8.73 0-2.959.562-5.852 1.658-8.67 1.1-2.826 2.789-5.371 5.062-7.639 2.27-2.277 4.83-3.98 7.688-5.122 2.869-1.134 5.771-1.701 8.73-1.701 2.965 0 5.877.567 8.732 1.701 2.861 1.142 5.426 2.845 7.691 5.122l3.209 3.195-25.729 25.721c2.621 1.309 5.391 1.74 8.324 1.287 2.926-.443 5.488-1.77 7.689-3.973l3.215-3.203zm-23.045-16.655c-2.758 2.752-4.127 6.063-4.127 9.916 0 2.135.479 4.164 1.441 6.094a509.53 509.53 0 0 0 3.773-3.762 595.32 595.32 0 0 1 5.381-5.375 700.454 700.454 0 0 1 5.463-5.43 391.034 391.034 0 0 0 4.084-4.031c-2.619-1.305-5.389-1.741-8.32-1.34-2.918.415-5.482 1.725-7.695 3.928zm-215.769 8.011c-.317-7.346-6.549-13.729-6.549-13.729-13.253-12.455-26.035-4.957-26.035-4.957-13.411 7.349-12.447 21.721-12.447 21.721.853 12.082 8.726 18.531 17.092 20.604 8.486 2.109 18.356-2.875 18.356-2.875v3.434l9.623.043s.283-16.888-.04-24.241zm-22.724 15.44c-7.241 0-13.104-5.98-13.104-13.355 0-7.382 5.86-13.365 13.104-13.365 7.223 0 13.083 5.983 13.083 13.365 0 7.374-5.861 13.355-13.083 13.355zm115.654-15.283c-.318-7.34-6.549-13.736-6.549-13.736-13.257-12.455-26.033-4.941-26.033-4.941-13.416 7.342-12.461 21.717-12.461 21.717.854 12.086 8.736 18.523 17.091 20.604 8.495 2.105 18.366-2.875 18.366-2.875v3.434l9.623.043c0-.005.276-16.895-.037-24.246zm-22.732 15.437c-7.234 0-13.09-5.98-13.09-13.354 0-7.383 5.854-13.366 13.09-13.366 7.229 0 13.104 5.983 13.104 13.366-.002 7.372-5.874 13.354-13.104 13.354zm-70.311-56.952s8.586 1.865 9.379 5.272c0 0 .235.211.235 1.13 0 .92-.037 12.616.046 13.773 0 0-.244 6.066 5.946 10.816 0 0 6.517 5.352 14.771 1.357 0 0 7.585-3.148 8.138-12.096 0 0 0-13.975.131-14.537.118-.555.679-2.235 3.674-3.668 2.99-1.44 5.869-1.963 5.869-1.963l-.044 20.127s.282 6.148-3.797 12.137c-4.066 5.988-9.017 9.104-15.399 10.621l-.042 23.117h-9.623l-.119-23.188s-9.106-1.087-15.336-10.511c0 0-3.557-4.909-3.828-12.178l-.001-20.209z"/></svg>