<svg xmlns="http://www.w3.org/2000/svg" width="14" height="11" viewBox="0 0 14 11">
  <metadata><?xpacket begin="﻿" id="W5M0MpCehiHzreSzNTczkc9d"?>
<x:xmpmeta xmlns:x="adobe:ns:meta/" x:xmptk="Adobe XMP Core 5.6-c138 79.159824, 2016/09/14-01:09:01        ">
   <rdf:RDF xmlns:rdf="http://www.w3.org/1999/02/22-rdf-syntax-ns#">
      <rdf:Description rdf:about=""/>
   </rdf:RDF>
</x:xmpmeta>
                                                                                                    
                                                                                                    
                                                                                                    
                                                                                                    
                                                                                                    
                                                                                                    
                                                                                                    
                                                                                                    
                                                                                                    
                                                                                                    
                                                                                                    
                                                                                                    
                                                                                                    
                                                                                                    
                                                                                                    
                                                                                                    
                                                                                                    
                                                                                                    
                                                                                                    
                                                                                                    
                           
<?xpacket end="w"?></metadata>
<defs>
    <style>
      .cls-1 {
        fill: #00baeb;
        fill-rule: evenodd;
      }
    </style>
  </defs>
  <path id="Forma_1_copy_12" data-name="Forma 1 copy 12" class="cls-1" d="M1261,6223.31a5.92,5.92,0,0,1-1.65.43,2.715,2.715,0,0,0,1.26-1.53,5.957,5.957,0,0,1-1.82.67,2.947,2.947,0,0,0-4.13-.07,2.639,2.639,0,0,0-.84,1.97,3.571,3.571,0,0,0,.07.63,8.188,8.188,0,0,1-5.91-2.9,2.657,2.657,0,0,0-.05,2.72,2.762,2.762,0,0,0,.93.99,2.892,2.892,0,0,1-1.29-.35v0.03a2.619,2.619,0,0,0,.65,1.77,2.959,2.959,0,0,0,1.65.96,3.225,3.225,0,0,1-.76.09,3.617,3.617,0,0,1-.54-0.04,2.733,2.733,0,0,0,1.01,1.37,2.855,2.855,0,0,0,1.67.55,5.741,5.741,0,0,1-3.56,1.19,4.933,4.933,0,0,1-.69-0.04,8.169,8.169,0,0,0,4.41,1.25,8.768,8.768,0,0,0,2.87-.47,7.509,7.509,0,0,0,2.29-1.25,8.814,8.814,0,0,0,1.64-1.81,7.77,7.77,0,0,0,1.02-2.14,7.453,7.453,0,0,0,.34-2.23,3.444,3.444,0,0,0-.01-0.36A5.926,5.926,0,0,0,1261,6223.31Z" transform="translate(-1247 -6222)"/>
</svg>
